# xmcd
#
# Track frame offsets:
#	150
#	21982
#	38525
#	42292
#	71900
#	83195
#	127727
#	135902
#	148617
#	152567
#	157270
#
# Disc length: 2223 seconds
#
# Revision: 1
# Processed by: cddbd v1.5.1PL0 Copyright (c) Steve Scherf et al.
# Submitted via: audiograbber 1.83.01
#
DISCID=8c08ad0b
DTITLE=Mevlana - Acemasiran Mevlevi Ayini
DYEAR=1900
DGENRE=
TTITLE0=Bas Taksim
TTITLE1=Acemasiran  Pesrev
TTITLE2=Ara Taksim
TTITLE3=1. Selam
TTITLE4=2. Selam
TTITLE5=3. Selam
TTITLE6=4. Selam
TTITLE7=Son Pesrev
TTITLE8=Son Yürük Semavi
TTITLE9=Ney Taksim
TTITLE10=Acemasiran  Ilahi
EXTD=
EXTT0=
EXTT1=
EXTT2=
EXTT3=
EXTT4=
EXTT5=
EXTT6=
EXTT7=
EXTT8=
EXTT9=
EXTT10=
PLAYORDER=
